<svg width="673" height="705" viewBox="0 0 673 705" fill="none" xmlns="http://www.w3.org/2000/svg">
<path d="M12.3868 315.347L285.44 13.4C296.586 2.40522 312.601 -2.08398 327.841 1.51976C343.076 5.12389 355.388 16.3171 360.425 31.1398C365.462 45.9624 362.524 62.3371 352.639 74.4784L143.572 305.945H627.186C643.446 305.945 658.472 314.617 666.602 328.7C674.727 342.778 674.727 360.126 666.602 374.205C658.471 388.288 643.446 396.96 627.186 396.96H151.786L356.066 628.72C366.816 640.912 370.248 657.913 365.066 673.318C359.883 688.725 346.878 700.193 330.94 703.406C315.008 706.62 298.571 701.094 287.82 688.901L12.007 375.901C4.63729 367.516 0.605958 356.713 0.673691 345.552C0.741399 334.385 4.90809 323.634 12.382 315.344L12.3868 315.347Z" fill="#339999"/>
</svg>
