<svg width="208" height="209" viewBox="0 0 208 209" fill="none" xmlns="http://www.w3.org/2000/svg">
<path d="M190.24 208.4C185.412 208.4 181.047 206.442 177.875 203.265L103.678 129.067L29.4807 203.265C26.3556 206.181 22.1786 207.952 17.5588 207.952C7.89737 207.952 0.0588379 200.113 0.0588379 190.452C0.0588379 185.832 1.85579 181.634 4.77246 178.504L78.9698 104.307L4.77246 30.1095C1.85579 26.9844 0.0850016 22.8073 0.0850016 18.1876C0.0850016 8.52613 7.92354 0.687592 17.585 0.687592C22.2047 0.687592 26.4027 2.48453 29.5328 5.40119L103.73 79.5985L177.928 5.40119C181.053 2.48453 185.256 0.713715 189.849 0.713715C199.511 0.713715 207.349 8.55225 207.349 18.2137C207.349 22.8334 205.552 27.0315 202.636 30.1616L128.438 104.359L202.636 178.556C205.808 181.728 207.745 186.093 207.745 190.921C207.745 200.582 199.927 208.421 190.266 208.421L190.24 208.4Z" fill="#F5F5F5"/>
</svg>
