<svg width="676" height="658" viewBox="0 0 676 658" fill="none" xmlns="http://www.w3.org/2000/svg">
<path d="M425.957 95.2778L80.5425 430.734C108.969 448.716 138.11 471.541 164.406 497.137C189.992 522.036 214.156 550.396 232.639 578.75L578.053 242.602C564.548 219.777 543.226 191.418 511.243 160.293C478.547 129.169 450.121 108.423 425.957 95.2803V95.2778Z" fill="#339999"/>
<path d="M657.655 81.4409L591.56 17.1187C568.106 -5.70622 529.728 -5.70622 506.274 17.1187L464.342 57.9255C492.768 75.9075 521.91 98.7324 548.205 124.328C574.501 149.918 597.955 177.587 616.438 205.941L658.37 165.135C681.111 141.619 681.11 104.267 657.655 81.4409Z" fill="#339999"/>
<path d="M49.2706 472.233L0.938405 629.24C-4.03911 645.842 11.5973 661.059 28.6569 656.215L189.993 609.185C176.487 587.049 155.879 561.459 127.447 533.099C98.3109 504.74 72.0101 485.373 49.2693 472.232L49.2706 472.233Z" fill="#339999"/>
</svg>
