<svg width="24" height="24" viewBox="0 0 24 24" fill="none" xmlns="http://www.w3.org/2000/svg">
<path fill-rule="evenodd" clip-rule="evenodd" d="M6.75752 5.86893C8.16916 6.34472 9.73798 6.61646 11.4217 6.68016L11.4031 0.14851C9.34897 1.84264 7.78703 3.7657 6.75752 5.86893M5.19764 6.5211C4.14848 6.06224 3.17595 5.48691 2.30657 4.80707C0.907696 6.74705 0.111988 9.03542 0 11.4422H4.15438C4.23591 9.73915 4.58563 8.08384 5.19764 6.5211M9.75252 0.00935653C7.16598 0.50804 4.79654 1.8737 3.02929 3.88834C3.82303 4.50447 4.70715 5.02605 5.66298 5.44411C6.61292 3.46431 7.98723 1.63779 9.75252 0.00935653M11.4218 23.9917V17.5845C9.73415 17.6462 8.1447 17.9339 6.69278 18.4405C7.73211 20.5925 9.32156 22.4579 11.4218 23.9917M12.5576 0.149406L12.5773 6.68604C14.2434 6.65419 15.8171 6.39439 17.2621 5.91462C16.2434 3.82035 14.6628 1.88136 12.5576 0.149406M5.59097 18.8778C4.73043 19.263 3.90918 19.7378 3.14491 20.2922C4.84242 22.1755 7.08906 23.4784 9.52727 24C7.82878 22.5338 6.50653 20.8118 5.59097 18.8778M6.22027 17.3546C7.81758 16.7852 9.56617 16.4667 11.4218 16.409V12.6166H5.29096C5.33517 14.2649 5.64756 15.8565 6.22027 17.3546M4.13375 12.6169H0C0.114935 15.0844 0.94306 17.4176 2.39989 19.3834C3.24963 18.7564 4.1642 18.2218 5.12494 17.7908C4.51097 16.1704 4.17795 14.4305 4.13375 12.6169M5.31179 11.4426H11.422V7.85531C9.5644 7.78762 7.83644 7.48204 6.28235 6.94752C5.71946 8.38086 5.39332 9.89184 5.31179 11.4426M18.3501 5.50244C19.2971 5.09533 20.2018 4.57773 21.0398 3.96359C19.2568 1.8932 16.849 0.498683 14.2085 0C15.9993 1.64735 17.3913 3.49675 18.3501 5.50244M14.4839 23.9956C16.9575 23.4651 19.2267 22.1353 20.9301 20.2132C20.1767 19.6488 19.3436 19.1651 18.4517 18.7779C17.5351 20.7537 16.2021 22.5065 14.4839 23.9956M18.9055 17.6948C19.8947 18.1248 20.8201 18.6633 21.66 19.2973C23.0795 17.3474 23.886 15.0431 24 12.6164H19.8653C19.825 14.3812 19.5018 16.0893 18.9055 17.6948M12.5778 7.86158V11.4439H18.688C18.6084 9.91006 18.2872 8.41401 17.7342 6.99162C16.1447 7.5331 14.4108 7.82475 12.5778 7.86158M19.8438 11.4426H23.9991C23.8891 9.07464 23.114 6.81514 21.7525 4.89108C20.8291 5.57291 19.8428 6.14027 18.8172 6.58023C19.4184 8.12704 19.7632 9.76145 19.8438 11.4426M12.5778 16.3991C14.4659 16.4419 16.2223 16.7346 17.801 17.2691C18.3619 15.7899 18.6664 14.2252 18.7086 12.6167H12.5778V16.3991ZM12.5778 17.5714V23.9647C14.6967 22.4119 16.297 20.5246 17.3392 18.3517C15.903 17.8779 14.3028 17.6152 12.5778 17.5714" fill="#F8F1F1"/>
</svg>
