<svg width="710" height="710" viewBox="0 0 710 710" fill="none" xmlns="http://www.w3.org/2000/svg">
<path d="M354.667 0.666748C159.12 0.666748 0 159.787 0 355.333C0 550.88 159.12 710 354.667 710C550.213 710 709.333 550.88 709.333 355.333C709.333 159.787 550.213 0.666748 354.667 0.666748ZM363.255 672.52V581.801C363.255 515.796 309.567 461.739 243.562 461.213C228.479 461.141 214.666 460.838 203.541 460.318C191.593 459.797 143.734 428.88 39.5672 317.478C58.3072 160.304 192.487 37.9976 354.661 37.9976C437.021 37.9976 512.061 69.5082 568.501 121.102L494.803 151.342C492.116 152.461 489.277 153.06 486.293 153.06H450.975C419.913 153.06 393.559 177.254 391.017 208.164L386.017 266.404C385.267 274.993 379.595 282.607 371.454 285.816L364.136 288.728C335.688 299.853 320.158 330.692 328.074 360.556C335.24 386.692 359.136 404.983 386.24 404.983L483.308 401.696C497.12 401.248 510.339 406.175 520.418 415.66C530.574 425.217 536.324 438.061 536.694 451.947L537.814 495.925C538.261 511.753 544.829 526.613 556.256 537.737L588.959 569.175C532.662 630.779 452.466 670.128 363.239 672.519L363.255 672.52Z" fill="#F5F5F5"/>
</svg>
