<svg width="710" height="609" viewBox="0 0 710 609" fill="none" xmlns="http://www.w3.org/2000/svg">
<path d="M354.667 608.387C342.094 608.387 329.516 603.606 319.943 594.043L58.3561 332.803C-17.4773 257.073 -19.6906 134.216 53.4186 58.9361C90.1533 21.1028 139.481 0.274755 192.285 0.274755C243.983 0.274755 292.545 20.3428 329.045 56.7961L354.649 82.3641L380.18 56.8068C416.691 20.3374 465.253 0.270752 516.94 0.270752C569.789 0.270752 619.133 21.0934 655.873 58.9068C729.019 134.188 726.827 257.053 650.983 332.813L389.396 594.053C379.828 603.606 367.245 608.392 354.672 608.392L354.667 608.387ZM192.28 41.1334C150.608 41.1334 111.701 57.5654 82.7228 87.4041C25.0974 146.748 27.1134 243.857 87.2228 303.884L348.809 565.124C352.033 568.348 357.283 568.348 360.507 565.124L622.107 303.884C682.227 243.848 684.222 146.724 626.56 87.3774C597.587 57.5548 558.659 41.1374 516.946 41.1374C476.159 41.1374 437.852 56.9601 409.076 85.7054L369.118 125.7C361.149 133.695 348.222 133.705 340.227 125.716L300.164 85.6997C271.388 56.9597 233.076 41.1317 192.284 41.1317L192.28 41.1334Z" fill="#F5F5F5"/>
</svg>
