<svg width="1190" height="1190" viewBox="0 0 1190 1190" fill="none" xmlns="http://www.w3.org/2000/svg">
<path fill-rule="evenodd" clip-rule="evenodd" d="M376.786 499.04C376.786 488.993 381.635 479.567 389.812 473.728L576.479 340.395C587.297 332.665 601.828 332.665 612.645 340.395L799.312 473.728C807.484 479.566 812.338 488.993 812.338 499.04V825.253C812.338 842.436 798.412 856.363 781.229 856.363H687.895V669.696C687.895 652.513 673.969 638.587 656.786 638.587H532.338C515.155 638.587 501.229 652.513 501.229 669.696V856.363H407.895C390.713 856.363 376.786 842.436 376.786 825.253V499.04ZM563.453 483.029C546.27 483.029 532.338 496.961 532.338 514.144V545.253C532.338 562.436 546.27 576.363 563.453 576.363H625.671C642.854 576.363 656.786 562.436 656.786 545.253V514.144C656.786 496.961 642.854 483.029 625.671 483.029H563.453Z" fill="#F5F5F5"/>
<path fill-rule="evenodd" clip-rule="evenodd" d="M604.106 292.389C598.487 288.019 590.622 288.019 585.002 292.389L324.109 495.309C317.328 500.58 307.552 499.361 302.276 492.58C297.005 485.799 298.224 476.023 305.005 470.752L565.912 267.832C582.766 254.723 606.36 254.723 623.214 267.832L884.121 470.752C890.897 476.023 892.121 485.799 886.85 492.58C881.574 499.361 871.798 500.58 865.017 495.309L604.106 292.389Z" fill="#F5F5F5"/>
<path d="M595 1190C267.003 1190 0 923.142 0 595C0 266.858 266.979 0 595 0C923.021 0 1190 266.858 1190 595C1190 923.142 923.142 1190 595 1190ZM595 59.5412C299.812 59.5412 59.5412 299.822 59.5412 595C59.5412 890.178 299.682 1130.46 595 1130.46C890.318 1130.46 1130.46 890.318 1130.46 595C1130.46 299.682 890.178 59.5412 595 59.5412Z" fill="#F5F5F5"/>
</svg>
