<svg width="1371" height="1371" viewBox="0 0 1371 1371" fill="none" xmlns="http://www.w3.org/2000/svg">
<path d="M959.393 366H410.833C369.068 366 335 401.469 335 445.099V825.552C335 869.188 369.068 904.651 410.833 904.651H457.969L507.787 984.801C516.422 998.801 528.787 1006.5 542.672 1006.5H542.787C557.953 1006.5 572.536 997.051 582.923 980.483L629.824 904.649H959.637C1001.4 904.649 1035.47 869.18 1035.47 825.551L1035.46 445.217C1035.46 401.581 1001.39 366.119 959.627 366.119L959.393 366ZM503.58 728.947C503.58 722.53 508.83 717.28 515.247 717.28H854.86C861.277 717.28 866.527 722.53 866.527 728.947C866.527 735.363 861.277 740.613 854.86 740.613H515.247C508.83 740.613 503.58 735.363 503.58 728.947ZM854.86 553.48L515.247 553.485C508.83 553.485 503.58 548.235 503.58 541.819C503.58 535.402 508.83 530.152 515.247 530.152H854.86C861.277 530.152 866.527 535.402 866.527 541.819C866.527 548.235 861.277 553.485 854.86 553.485V553.48Z" fill="#F5F5F5"/>
<path d="M685.5 1371C307.614 1371 0 1063.55 0 685.5C0 307.447 307.587 0 685.5 0C1063.41 0 1371 307.447 1371 685.5C1371 1063.55 1063.55 1371 685.5 1371ZM685.5 68.5974C345.414 68.5974 68.5974 345.425 68.5974 685.5C68.5974 1025.57 345.264 1302.4 685.5 1302.4C1025.74 1302.4 1302.4 1025.74 1302.4 685.5C1302.4 345.263 1025.57 68.5974 685.5 68.5974Z" fill="#F5F5F5"/>
</svg>
