<svg width="656" height="656" viewBox="0 0 656 656" fill="none" xmlns="http://www.w3.org/2000/svg">
<path d="M425.907 306.507C425.907 360.772 381.917 404.767 327.647 404.767C273.376 404.767 229.387 360.772 229.387 306.507C229.387 252.236 273.376 208.247 327.647 208.247C381.917 208.247 425.907 252.236 425.907 306.507Z" fill="#F5F5F5"/>
<path d="M327.64 422.2C264.395 422.2 212.952 370.752 212.952 307.512C212.952 244.267 264.4 192.824 327.64 192.824C390.885 192.824 442.328 244.272 442.328 307.512C442.328 370.757 390.88 422.2 327.64 422.2ZM327.64 225.6C282.468 225.6 245.728 262.335 245.728 307.512C245.728 352.684 282.463 389.424 327.64 389.424C372.812 389.424 409.552 352.689 409.552 307.512C409.552 262.34 372.817 225.6 327.64 225.6Z" fill="#F5F5F5"/>
<path d="M327.64 655.28C147.027 655.28 0 508.333 0 327.64C0 146.947 147.013 0 327.64 0C508.267 0 655.28 146.947 655.28 327.64C655.28 508.333 508.333 655.28 327.64 655.28ZM327.64 32.7867C165.093 32.7867 32.7867 165.099 32.7867 327.64C32.7867 490.181 165.021 622.493 327.64 622.493C490.259 622.493 622.493 490.259 622.493 327.64C622.493 165.021 490.181 32.7867 327.64 32.7867Z" fill="#F5F5F5"/>
<path d="M325.253 626.76C248.723 638.109 183.24 599.057 155.76 574.567C159.416 482.801 234.979 409.473 327.64 409.473C420.301 409.473 494.453 481.38 499.373 571.873C469.285 587.556 403.056 615.18 325.253 626.68V626.76Z" fill="#F5F5F5"/>
<path d="M298 645.12C233.86 645.12 176.891 615.401 144.933 586.808L139.183 581.657L139.48 573.964C143.511 472.568 226.168 393.204 327.72 393.204C429.267 393.204 510.36 471.382 515.8 571.138L516.399 581.664L506.993 586.518C493.556 593.539 421.873 629.002 327.713 642.966C317.708 644.461 307.776 645.133 298.073 645.133L298 645.12ZM172.708 567.317C191.599 582.249 249.317 621.375 322.868 610.552C397.983 599.427 457.721 573.891 482.135 562.245C472.65 484.964 406.723 425.899 327.721 425.899C248.727 425.899 179.881 487.425 172.708 567.312V567.317Z" fill="#F5F5F5"/>
</svg>
