<svg width="710" height="710" viewBox="0 0 710 710" fill="none" xmlns="http://www.w3.org/2000/svg">
<path fill-rule="evenodd" clip-rule="evenodd" d="M422.187 422.84C338.624 506.449 201.373 506.449 117.8 422.84C34.1907 339.277 34.1907 202.027 117.8 118.453C201.363 34.8439 338.613 34.8439 422.187 118.453C505.791 202.021 505.791 339.267 422.187 422.84ZM687.827 584.627L505.973 402.773C564.796 297.7 547.119 165.387 461.203 79.4399C356.161 -25.5708 183.816 -25.6014 78.776 79.4399C-26.2507 184.467 -26.2653 356.827 78.776 461.84C164.26 547.324 297.003 565.569 402.136 506.621L583.976 688.475C612.653 717.152 659.143 717.152 687.825 688.48C716.503 659.808 716.508 613.308 687.831 584.63L687.827 584.627Z" fill="#F5F5F5"/>
</svg>
