<svg width="561" height="561" viewBox="0 0 561 561" fill="none" xmlns="http://www.w3.org/2000/svg">
<path d="M548.467 12.5359C536.842 0.910819 520.035 -2.86012 504.54 2.70775L28.2867 174.174C12.636 179.81 2.05734 193.612 0.661339 210.18C-0.729327 226.742 7.40614 242.106 21.8747 250.273L193.861 347.341L326.315 214.888C331.778 209.424 340.643 209.424 346.107 214.888C351.57 220.351 351.57 229.216 346.107 234.68L213.653 367.133L310.721 539.12C318.284 552.521 332.019 560.489 347.159 560.489C348.367 560.489 349.591 560.442 350.815 560.338C367.383 558.942 381.179 548.364 386.82 532.713L558.287 56.4594C563.855 40.99 560.094 24.1567 548.459 12.5327L548.467 12.5359Z" fill="#F5F5F5"/>
</svg>
