<svg width="215" height="385" viewBox="0 0 215 385" fill="none" xmlns="http://www.w3.org/2000/svg">
<path d="M208.155 6.55212C203.952 2.35946 198.259 0 192.322 0C186.389 0 180.697 2.35932 176.494 6.55212L6.54696 176.499C2.35429 180.697 0 186.389 0 192.327C0 198.264 2.35416 203.957 6.54696 208.155L176.494 378.101C182.212 383.43 190.291 385.393 197.816 383.279C205.342 381.169 211.223 375.289 213.332 367.763C215.442 360.242 213.478 352.159 208.155 346.445L54.0352 192.325L208.155 38.2052C212.348 34.0073 214.702 28.3145 214.702 22.3772C214.702 16.4449 212.348 10.7469 208.155 6.54919L208.155 6.55212Z" fill="#339999"/>
</svg>
