<svg width="640" height="640" viewBox="0 0 640 640" fill="none" xmlns="http://www.w3.org/2000/svg">
<path d="M295.668 386.73C297.816 380.969 300.062 374.768 302.406 368.127C304.75 361.486 307.045 354.65 309.291 347.619C311.537 340.49 313.686 333.312 315.736 326.086C317.885 318.762 319.789 311.584 321.449 304.553L307.24 257.971C306.264 254.748 306.312 251.965 307.387 249.621C308.559 247.18 310.365 245.178 312.807 243.615C315.248 241.955 318.129 240.734 321.449 239.953C324.867 239.172 328.432 238.781 332.143 238.781C335.365 238.781 338.246 238.977 340.785 239.367C343.324 239.66 345.521 240.246 347.377 241.125C349.33 242.004 350.941 243.273 352.211 244.934C353.48 246.496 354.506 248.547 355.287 251.086L397.328 386.438C399.574 380.383 401.918 373.84 404.359 366.809C406.801 359.777 409.193 352.551 411.537 345.129C413.881 337.707 416.127 330.188 418.275 322.57C420.424 314.953 422.279 307.482 423.842 300.158C425.502 292.834 426.771 285.852 427.65 279.211C428.627 272.473 429.115 266.32 429.115 260.754C429.115 254.309 428.676 248.938 427.797 244.641C426.918 240.344 425.893 236.779 424.721 233.947C423.646 231.018 422.67 228.625 421.791 226.77C420.912 224.914 420.473 223.205 420.473 221.643C420.473 219.592 421.01 217.883 422.084 216.516C423.158 215.051 424.525 213.83 426.186 212.854C427.846 211.877 429.652 211.193 431.605 210.803C433.559 210.314 435.414 210.07 437.172 210.07C441.078 210.07 444.398 210.656 447.133 211.828C449.867 213 451.771 215.002 452.846 217.834C453.334 219.299 453.725 220.861 454.018 222.521C454.311 224.084 454.506 225.646 454.604 227.209C454.799 228.674 454.896 230.09 454.896 231.457C454.896 232.727 454.896 233.752 454.896 234.533C454.896 238.635 454.213 244.25 452.846 251.379C451.576 258.508 449.77 266.564 447.426 275.549C445.18 284.436 442.592 294.006 439.662 304.26C436.732 314.514 433.656 324.865 430.434 335.314C427.309 345.666 424.135 355.822 420.912 365.783C417.689 375.744 414.613 384.973 411.684 393.469C408.852 401.867 406.312 409.289 404.066 415.734C401.918 422.082 400.258 426.818 399.086 429.943C398.305 432.287 397.23 434.143 395.863 435.51C394.594 436.877 393.08 437.902 391.322 438.586C389.662 439.367 387.807 439.855 385.756 440.051C383.803 440.246 381.752 440.344 379.604 440.344C375.697 440.344 372.475 439.953 369.936 439.172C367.494 438.391 365.541 437.414 364.076 436.242C362.611 435.07 361.537 433.801 360.854 432.434C360.17 431.066 359.633 429.846 359.242 428.771L330.092 332.971C326.869 343.615 323.598 354.113 320.277 364.465C316.957 374.719 313.783 384.191 310.756 392.883C307.826 401.574 305.189 409.191 302.846 415.734C300.502 422.18 298.695 426.916 297.426 429.943C296.449 432.287 295.229 434.143 293.764 435.51C292.396 436.877 290.834 437.902 289.076 438.586C287.416 439.367 285.609 439.855 283.656 440.051C281.703 440.246 279.701 440.344 277.65 440.344C273.744 440.344 270.521 439.953 267.982 439.172C265.541 438.391 263.588 437.414 262.123 436.242C260.658 435.07 259.535 433.801 258.754 432.434C258.07 431.066 257.533 429.846 257.143 428.771L204.994 254.455C204.018 251.135 202.943 248.352 201.771 246.105C200.697 243.762 199.33 241.857 197.67 240.393C196.107 238.928 194.154 237.854 191.811 237.17C189.564 236.486 186.781 236.145 183.461 236.145C180.727 236.145 177.553 236.828 173.939 238.195C170.326 239.465 166.859 241.418 163.539 244.055C160.316 246.594 157.582 249.816 155.336 253.723C153.09 257.531 151.967 261.975 151.967 267.053C151.967 270.178 152.357 272.668 153.139 274.523C154.018 276.379 154.994 277.795 156.068 278.771C157.143 279.65 158.217 280.236 159.291 280.529C160.463 280.725 161.293 280.822 161.781 280.822C164.223 280.822 166.225 280.432 167.787 279.65C169.35 278.771 170.766 277.893 172.035 277.014C173.305 276.037 174.477 275.158 175.551 274.377C176.723 273.498 178.041 273.059 179.506 273.059C180.678 273.059 181.898 273.352 183.168 273.938C184.535 274.426 185.756 275.256 186.83 276.428C188.002 277.6 188.979 279.162 189.76 281.115C190.541 282.971 190.932 285.266 190.932 288C190.932 291.906 190.15 295.275 188.588 298.107C187.123 300.939 185.17 303.332 182.729 305.285C180.385 307.141 177.65 308.557 174.525 309.533C171.498 310.412 168.471 310.852 165.443 310.852C160.756 310.852 156.557 310.021 152.846 308.361C149.232 306.701 146.156 304.455 143.617 301.623C141.176 298.791 139.271 295.52 137.904 291.809C136.635 288 136 283.947 136 279.65C136 269.494 137.953 260.656 141.859 253.137C145.766 245.52 150.941 239.172 157.387 234.094C163.832 229.016 171.156 225.256 179.359 222.814C187.562 220.275 196.01 219.006 204.701 219.006C214.467 219.006 222.475 220.52 228.725 223.547C234.975 226.477 240.004 230.285 243.812 234.973C247.719 239.66 250.795 244.934 253.041 250.793C255.287 256.555 257.289 262.268 259.047 267.932L295.668 386.73Z" fill="#F5F5F5"/>
<path d="M320 640C143.598 640 0 496.48 0 320C0 143.52 143.585 0 320 0C496.415 0 640 143.52 640 320C640 496.48 496.48 640 320 640ZM320 32.0221C161.244 32.0221 32.0221 161.249 32.0221 320C32.0221 478.751 161.173 607.978 320 607.978C478.827 607.978 607.978 478.827 607.978 320C607.978 161.173 478.751 32.0221 320 32.0221Z" fill="#F5F5F5"/>
</svg>
